HIERARCHY
ROOT Hips
{
  OFFSET 13.6774 106.653 -34.4427
  CHANNELS 6 Xposition Yposition Zposition Zrotation Xrotation Yrotation
  JOINT ToSpine
  {
    OFFSET -2.69724 7.43032 -0.144315
    CHANNELS 3 Zrotation Xrotation Yrotation
    JOINT Spine
    {
      OFFSET -0.0310711 10.7595 1.96963
      CHANNELS 3 Zrotation Xrotation Yrotation
      JOINT Spine1
      {
        OFFSET 19.9056 3.91189 0.764692
        CHANNELS 3 Zrotation Xrotation Yrotation
        JOINT Neck
        {
          OFFSET 25.9749 7.03908 -0.130764
          CHANNELS 3 Zrotation Xrotation Yrotation
          JOINT Head
          {
            OFFSET 9.52751 0.295786 -0.907742
            CHANNELS 3 Zrotation Xrotation Yrotation
            End Site
            {
              OFFSET 16.4037 0.713936 2.7358
            }
          }
        }
        JOINT LeftShoulder
        {
          OFFSET 17.7449 4.33886 11.7777
          CHANNELS 3 Zrotation Xrotation Yrotation
          JOINT LeftArm
          {
            OFFSET 0.911315 1.27913 9.80584
            CHANNELS 3 Zrotation Xrotation Yrotation
            JOINT LeftForeArm
            {
              OFFSET 28.6126 1.18197 -3.53199
              CHANNELS 3 Zrotation Xrotation Yrotation
              JOINT LeftHand
              {
                OFFSET 27.5088 0.0218783 0.327423
                CHANNELS 3 Zrotation Xrotation Yrotation
                End Site
                {
                  OFFSET 18.6038 -0.000155887 0.382096
                }
              }
            }
          }
        }
        JOINT RightShoulder
        {
          OFFSET 17.1009 2.89543 -12.2328
          CHANNELS 3 Zrotation Xrotation Yrotation
          JOINT RightArm
          {
            OFFSET 1.4228 0.178766 -10.211
            CHANNELS 3 Zrotation Xrotation Yrotation
            JOINT RightForeArm
            {
              OFFSET 28.733 1.87905 2.64907
              CHANNELS 3 Zrotation Xrotation Yrotation
              JOINT RightHand
              {
                OFFSET 27.4588 0.290562 -0.101845
                CHANNELS 3 Zrotation Xrotation Yrotation
                End Site
                {
                  OFFSET 17.8396 -0.255518 -0.000602873
                }
              }
            }
          }
        }
      }
    }
  }
  JOINT LeftUpLeg
  {
    OFFSET -5.61296 -2.22332 -10.2353
    CHANNELS 3 Zrotation Xrotation Yrotation
    JOINT LeftLeg
    {
      OFFSET 2.56703 -44.7417 -7.93097
      CHANNELS 3 Zrotation Xrotation Yrotation
      JOINT LeftFoot
      {
        OFFSET 3.16933 -46.5642 -3.96578
        CHANNELS 3 Zrotation Xrotation Yrotation
        JOINT LeftToeBase
        {
          OFFSET 0.346054 -6.02161 12.8035
          CHANNELS 3 Zrotation Xrotation Yrotation
          End Site
          {
            OFFSET 0.134235 -1.35082 5.13018
          }
        }
      }
    }
  }
  JOINT RightUpLeg
  {
    OFFSET -5.7928 -1.72406 10.6446
    CHANNELS 3 Zrotation Xrotation Yrotation
    JOINT RightLeg
    {
      OFFSET -2.57161 -44.7178 -7.85259
      CHANNELS 3 Zrotation Xrotation Yrotation
      JOINT RightFoot
      {
        OFFSET -3.10148 -46.5936 -4.03391
        CHANNELS 3 Zrotation Xrotation Yrotation
        JOINT RightToeBase
        {
          OFFSET -0.0828122 -6.13587 12.8035
          CHANNELS 3 Zrotation Xrotation Yrotation
          End Site
          {
            OFFSET -0.131328 -1.35082 5.13018
          }
        }
      }
    }
  }
}
MOTION
Frames: 14
Frame Time: 0.03333333333333333
0.0000 93.1000 0.0000 70.9729 -11.4650 -4.7608 -70.9455 -0.9079 88.1955 83.9658 70.0323 -3.3806 -5.3637 15.9550 12.5079 -132.9188 40.9430 153.6705 -125.9925 81.6631 148.6946 -0.4751 -14.0817 -23.9181 -78.9383 32.3732 -142.1476 20.6475 -6.4260 -102.9974 -0.1893 0.5715 0.5073 -2.3096 7.2916 38.8930 -139.1167 6.1237 83.5933 12.0547 -1.0133 87.5829 -0.0311 -0.4622 -0.0133 -57.5283 10.3580 98.0651 -2.1470 30.7025 -4.1711 -2.3192 -13.0694 -1.3518 2.9852 -10.1454 14.2443 -52.1703 -9.6046 81.1374 -0.4463 31.3761 12.0992 -3.9885 -13.1019 0.4938 1.4165 -13.6419 -13.2512 
0.0000 93.1000 0.0000 71.0457 -10.8980 -4.6604 -70.9653 0.4411 88.2142 81.9093 69.7776 -3.1511 -5.2197 15.7016 12.5818 -133.6686 41.2148 152.9706 -124.9411 81.7914 148.3285 0.5171 -14.4665 -23.6047 -78.7687 31.9316 -143.2821 20.0814 -5.9821 -103.1634 -0.3282 0.0832 0.5878 -1.6251 7.0287 39.0603 -139.8251 6.3836 83.4254 11.4055 -0.9462 87.9905 0.1946 0.1243 0.2252 -57.6086 10.2720 97.6999 -1.0707 28.8832 -6.2919 -2.7048 -12.1325 -1.3666 2.7379 -9.8198 14.7201 -52.0221 -9.8847 81.0929 0.9192 31.2251 13.1793 -4.1546 -12.6061 1.4371 2.0717 -13.7624 -14.5972 
0.0000 93.1000 0.0000 70.9580 -11.1093 -5.0238 -70.8701 0.3999 88.1638 85.0710 70.0332 -5.1546 -5.6527 16.1054 11.9209 -134.2220 41.5756 152.1477 -122.0790 81.9705 144.0002 0.4225 -14.6615 -23.0772 -78.0027 31.6158 -144.0723 20.2873 -5.9512 -103.9228 -0.3693 0.3452 0.2241 -1.4148 7.2133 38.9268 -139.8437 7.0546 83.6439 11.0293 -0.9552 87.5307 0.3720 -0.2321 0.4753 -58.0906 10.0752 98.4494 -0.7031 28.0670 -4.9548 -3.5760 -12.3183 -1.6452 1.1958 -7.7269 13.3817 -51.2111 -10.9309 80.2503 0.7070 31.1861 13.1190 -4.6510 -12.4324 1.7683 1.8138 -13.2987 -14.2257 
0.0000 93.1000 0.0000 71.2010 -11.2522 -4.5604 -70.9002 0.4046 88.0816 87.0311 71.0306 -6.9332 -6.3319 17.1847 11.2244 -134.9006 42.0866 151.9234 -121.8812 82.1323 143.7184 0.4919 -14.4424 -23.1087 -77.8853 31.8024 -144.0657 20.9830 -5.7924 -104.0437 0.0397 0.1141 -0.1786 -1.6227 7.4610 38.7650 -139.8956 7.0243 84.6399 11.1547 -1.7967 87.7922 0.2963 0.0388 0.5039 -59.1257 9.9419 98.6080 -1.2678 26.9444 -5.1031 -3.2661 -12.0342 -1.2499 0.7942 -6.7980 13.9334 -51.0502 -10.7481 80.1488 0.9452 31.1961 13.1396 -4.5541 -11.6408 1.4212 2.3021 -11.0060 -13.7861 
0.0000 93.1000 0.0000 72.0016 -11.0567 -4.7107 -70.9279 0.7301 88.0867 86.7479 70.8586 -6.9958 -6.1216 17.1645 11.4738 -136.1354 42.0632 152.8180 -121.8116 82.0180 143.4330 0.6267 -14.7617 -23.8453 -77.0516 31.8384 -144.0764 20.7892 -6.0109 -103.9734 0.3194 0.1231 -0.3264 -1.2208 6.9742 38.2280 -139.9495 6.4752 83.9063 10.5968 -1.2044 87.7942 0.2325 0.0543 0.5370 -58.8634 9.0666 99.0226 -1.1090 27.1653 -5.2815 -2.5939 -11.2136 -1.6055 0.3475 -6.8110 12.8114 -51.0614 -10.8342 80.9736 0.8386 32.2120 12.0407 -4.7560 -12.9380 1.8337 2.4632 -7.7008 -12.1914 
0.0000 93.1000 0.0000 72.0744 -11.7121 -4.7616 -70.8916 0.8488 87.8638 87.0812 70.8691 -7.2939 -6.1681 17.4350 11.0487 -135.2477 41.9520 153.0013 -123.2833 82.5695 144.6015 0.7569 -14.4682 -24.0822 -76.8272 31.7743 -143.1680 20.8385 -7.0377 -104.0669 0.0621 -0.1284 -0.1006 -1.3230 6.9986 37.9230 -139.9029 6.2255 83.9391 10.2486 -1.2180 88.0080 0.1079 0.3932 0.2972 -59.2533 8.9568 98.8351 -0.8273 26.9363 -4.7431 -2.9847 -10.9655 -1.1811 0.0362 -5.7748 12.3039 -50.9518 -10.1606 81.9626 1.0053 32.3045 12.0932 -4.2011 -13.0263 1.7235 1.3745 -7.2895 -12.0644 
0.0000 93.1000 0.0000 72.9129 -11.4394 -5.0028 -70.9602 0.5368 87.7334 86.1021 70.8414 -6.8965 -5.6028 17.5121 11.1906 -135.0718 42.0395 152.8029 -121.8091 82.4159 143.5738 0.5557 -14.0599 -24.2648 -76.0067 31.8857 -143.2806 20.6534 -6.3578 -103.7971 -0.2675 0.0316 0.0875 -1.4717 7.2480 37.4691 -138.6401 5.6262 84.5138 10.7619 -0.9336 87.6611 -0.0007 0.2039 0.1545 -60.1836 8.9168 98.9696 -0.5936 25.7510 -4.0456 -3.6161 -11.1121 -0.8944 -0.2120 -4.6334 10.9852 -51.2468 -10.4759 82.3176 0.9305 31.8035 11.8571 -3.7103 -12.6954 1.2101 0.4337 -7.4893 -11.3866 
0.0000 93.1000 0.0000 73.0632 -10.6120 -4.6479 -70.8734 0.7533 87.7008 84.9801 70.9741 -5.8093 -5.1159 17.2722 11.3373 -134.9934 41.9973 152.7952 -124.4535 82.9755 144.8590 0.6527 -14.1204 -24.0635 -77.0752 31.9300 -142.0412 20.8900 -6.0963 -104.9849 0.0237 -0.0790 -0.2770 -1.3760 7.2633 37.8603 -138.5393 5.0242 83.9606 11.1045 -0.8856 88.0217 0.1708 0.2904 -0.0259 -59.9299 8.8026 99.6200 -1.0117 25.8754 -4.9882 -2.5771 -10.8300 -1.0831 -0.1075 -4.8200 10.7130 -51.2579 -10.8384 80.9095 1.1842 31.6854 11.0932 -4.2033 -11.7021 1.5257 1.2116 -8.0237 -9.2654 
0.0000 93.1000 0.0000 72.8039 -10.5100 -4.5828 -70.9234 0.4998 87.7242 83.9407 70.7597 -4.8948 -5.0538 17.1108 11.0850 -135.3190 42.4160 153.8829 -126.2276 83.3597 147.1439 0.4431 -14.8435 -23.7311 -76.0450 31.5615 -142.2446 20.7481 -5.7470 -104.8089 0.0357 -0.1700 -0.3357 -1.6253 7.0558 36.7467 -138.1570 4.0711 83.4997 10.8366 -0.6142 87.9028 -0.0388 0.3147 -0.4398 -60.4006 9.4359 99.9519 -1.1861 25.6937 -5.9584 -3.0148 -10.1828 -0.7648 0.6567 -4.6051 11.2108 -51.9598 -10.9614 81.0799 1.4163 31.1728 9.8714 -3.8752 -10.9156 1.1592 0.5611 -8.7919 -5.5825 
0.0000 93.1000 0.0000 73.9410 -11.1477 -5.7310 -70.7816 0.7722 87.7830 83.0699 70.7970 -4.5116 -5.2714 17.0107 11.9852 -135.0141 42.2663 153.5345 -123.9137 83.3220 146.8072 0.4779 -13.8904 -23.8942 -76.1781 31.7222 -142.0982 20.9817 -6.0551 -104.4509 0.2699 0.2327 -0.4967 -1.0728 6.9262 37.1425 -138.1647 4.3229 83.4324 11.2351 -1.2404 87.5845 0.7380 -0.1362 0.2255 -59.9036 9.0652 99.9754 -0.9180 26.0349 -6.2940 -2.4968 -10.1428 -1.5619 -0.1033 -4.6422 10.4965 -51.9029 -11.4723 81.9237 1.4253 31.6444 10.1214 -4.4671 -10.7655 2.1285 2.0368 -8.7369 -5.8474 
0.0000 93.1000 0.0000 74.2356 -10.6777 -5.9529 -70.7926 0.2282 87.8042 82.9016 70.7978 -3.4930 -4.9090 17.5855 10.7062 -134.1786 41.9180 154.0187 -125.3073 82.8548 147.7383 0.2985 -13.8095 -24.0129 -75.5724 31.6841 -142.2142 20.8206 -6.2673 -103.8946 -0.1924 0.2196 0.0552 -1.5915 7.2563 36.6438 -137.4929 4.4071 84.0285 11.0435 -1.3333 88.0233 0.3128 -0.1057 0.2348 -61.0233 8.9599 99.5758 -1.1555 25.5700 -6.0485 -2.8178 -9.1714 -0.8998 -0.0582 -5.6855 11.3301 -52.2179 -10.5205 82.2715 0.8685 31.5524 10.3051 -3.7916 -10.9263 1.2306 0.8110 -8.0441 -5.2574 
0.0000 93.1000 0.0000 74.1869 -10.9773 -5.8433 -70.8843 0.7031 87.9086 82.7759 70.7184 -3.7112 -4.2996 17.2970 10.7061 -135.1454 42.6849 153.1490 -128.5875 83.0234 150.9444 0.6941 -14.1172 -23.8682 -76.0052 31.7997 -142.2381 21.2599 -7.1279 -105.2335 0.1427 -0.1790 -0.4245 -1.4570 7.4001 36.9827 -138.0420 3.9491 83.6316 10.6217 -1.1973 87.9919 -0.0278 0.2934 0.3111 -61.1708 8.6082 99.7513 0.1481 25.0534 -6.1045 -2.7541 -8.9786 -1.0186 -0.0880 -5.9507 10.9816 -51.9493 -11.2071 82.3547 0.8945 31.9089 10.0719 -3.8440 -10.7660 1.7633 1.5208 -8.9505 -4.0677 
0.0000 93.1000 0.0000 74.0865 -10.8970 -5.7261 -70.8109 0.3435 87.8137 82.0962 70.7043 -3.2353 -3.8826 16.9980 11.0797 -135.2495 43.3652 154.9275 -131.3698 84.0633 152.2700 0.4689 -13.8405 -23.8855 -76.1083 31.7413 -141.2314 21.6623 -7.1079 -105.0451 -0.1273 -0.0028 0.0189 -1.5721 7.2204 37.0126 -138.1978 3.1801 83.6781 10.7855 -1.1876 87.8182 -0.1284 0.0918 0.1409 -61.1794 9.1159 99.9303 -0.2383 24.8905 -5.8445 -3.1309 -9.0631 -0.9262 0.2067 -5.8568 9.7577 -52.0009 -10.7343 82.2329 0.9057 32.3058 8.9586 -3.8565 -9.9331 1.4882 0.8304 -8.9724 -2.7933 
0.0000 93.1000 0.0000 75.0201 -10.7487 -5.4007 -70.9653 0.1668 87.9563 80.8687 70.7372 -1.8569 -3.6638 17.1191 11.3191 -135.1251 43.0129 154.9892 -130.2268 83.6231 151.0798 0.2478 -14.2378 -23.7264 -76.4383 31.6695 -141.1736 21.3262 -5.8533 -105.1549 0.4559 0.1373 -0.1216 -1.5732 7.1487 36.8070 -137.6947 2.9489 83.2880 11.0571 -0.9969 87.6293 0.2514 -0.1382 0.1232 -60.8811 9.1903 99.8406 0.1248 24.9534 -5.9541 -2.7596 -8.3073 -1.0668 -0.1923 -6.0264 10.0592 -51.9350 -10.6296 81.7758 0.5102 31.0818 8.2520 -3.0123 -9.7281 1.4503 1.1271 -8.3703 -4.1671 
